<?xml version="1.0" encoding="UTF-8" standalone="no"?>
<!-- Uploaded to: SVG Repo, www.svgrepo.com, Generator: SVG Repo Mixer Tools -->

<svg
   height="813.58514"
   width="848.26758"
   version="1.1"
   id="Capa_1"
   viewBox="0 0 50.832435 48.754089"
   xml:space="preserve"
   sodipodi:docname="comparison_icon.svg"
   inkscape:version="1.2.1 (9c6d41e, 2022-07-14)"
   xmlns:inkscape="http://www.inkscape.org/namespaces/inkscape"
   xmlns:sodipodi="http://sodipodi.sourceforge.net/DTD/sodipodi-0.dtd"
   xmlns="http://www.w3.org/2000/svg"
   xmlns:svg="http://www.w3.org/2000/svg"><defs
   id="defs187" /><sodipodi:namedview
   id="namedview185"
   pagecolor="#ffffff"
   bordercolor="#999999"
   borderopacity="1"
   inkscape:showpageshadow="0"
   inkscape:pageopacity="0"
   inkscape:pagecheckerboard="0"
   inkscape:deskcolor="#d1d1d1"
   showgrid="false"
   inkscape:zoom="0.80820345"
   inkscape:cx="318.6079"
   inkscape:cy="331.59967"
   inkscape:window-width="2560"
   inkscape:window-height="1440"
   inkscape:window-x="0"
   inkscape:window-y="0"
   inkscape:window-maximized="0"
   inkscape:current-layer="Capa_1" />

<path
   style="fill:#000000;fill-opacity:0.492813;stroke:#ffffff;stroke-width:2.99625;stroke-dasharray:none;stroke-opacity:1"
   d="m 27.730651,2.8723274 5.407,10.9559996 c 0.376,0.762 1.103,1.29 1.944,1.412 l 12.091,1.757 c 2.118,0.308001 2.963,2.91 1.431,4.403 l -8.749,8.528001 c -0.608,0.593 -0.886,1.448 -0.742,2.285 l 2.065,12.042 c 0.362,2.109 -1.852,3.717 -3.746,2.722 l -10.814,-5.685 c -0.752,-0.395 -1.651,-0.395 -2.403,0 l -10.814,5.685 c -1.894,0.996 -4.1079995,-0.613 -3.7459995,-2.722 l 2.0649995,-12.042 c 0.144,-0.837 -0.134,-1.692 -0.742,-2.285 L 2.2286516,21.400327 c -1.53199999,-1.494 -0.687,-4.095999 1.4309999,-4.402999 L 15.750651,15.240327 c 0.841,-0.122 1.568,-0.65 1.944,-1.412 l 5.407,-10.9559996 c 0.946,-1.9190001 3.682,-1.9190001 4.629,0 z"
   id="path182" /></svg>
